<svg width="24" height="24" viewBox="0 0 24 24" fill="none" xmlns="http://www.w3.org/2000/svg">
<path d="M20.2176 13.2145C21.6224 10.5073 21.1114 7.20199 18.9548 5.04534C16.7981 2.88868 13.4928 2.37775 10.7856 3.78255" stroke="#6CB9FC" stroke-linecap="round" stroke-linejoin="round"/>
<path d="M9.99923 16.8686C9.97161 16.8686 9.94921 16.891 9.94921 16.9187C9.94921 16.9463 9.97161 16.9687 9.99923 16.9687C10.0269 16.9687 10.0493 16.9463 10.0493 16.9187C10.0493 16.891 10.0269 16.8686 9.99923 16.8686" stroke="#6CB9FC" stroke-linecap="round" stroke-linejoin="round"/>
<path d="M8.19873 12.2002C8.38259 11.4054 9.10638 10.8542 9.92145 10.8883C10.8335 10.8378 11.6154 11.5328 11.6722 12.4445C11.6722 13.6117 9.99925 14.0007 9.99925 14.7788" stroke="#6CB9FC" stroke-linecap="round" stroke-linejoin="round"/>
<rect x="2.99634" y="6.99805" width="14.0058" height="14.0058" rx="6.99999" stroke="#6CB9FC" stroke-linecap="round" stroke-linejoin="round"/>
</svg>
